<?xml version="1.0" encoding="UTF-8"?>
<!DOCTYPE svg PUBLIC "-//W3C//DTD SVG 1.0//EN" "http://www.w3.org/TR/2001/REC-SVG-20010904/DTD/svg10.dtd">
<!-- Creator: CorelDRAW X8 -->
<svg xmlns="http://www.w3.org/2000/svg" xml:space="preserve" width="14.8941in" height="16.2967in" version="1.0" style="shape-rendering:geometricPrecision; text-rendering:geometricPrecision; image-rendering:optimizeQuality; fill-rule:evenodd; clip-rule:evenodd"
viewBox="0 0 998 1092"
 xmlns:xlink="http://www.w3.org/1999/xlink">
 <defs>
  <style type="text/css">
   <![CDATA[
    .fil1 {fill:#FF5112}
    .fil2 {fill:white}
    .fil0 {fill:white}
    .fil3 {fill:white;fill-rule:nonzero}
   ]]>
  </style>
 </defs>
 <g id="Layer_x0020_1">
  <metadata id="CorelCorpID_0Corel-Layer"/>
  <g id="_2347924336736">
   <path class="fil0" d="M481 0l-231 0 0 399 231 133 0 -302 0 -64 -121 0 59 64 0 194c0,0 -105,-60 -105,-60 0,0 0,-299 0,-299l167 0 0 -65z"/>
   <path class="fil1" d="M517 0l231 0 0 399 -231 133 0 -302 0 -64 121 0 -59 64 0 194c0,0 105,-60 105,-60 0,0 0,-299 0,-299l-167 0 0 -65z"/>
   <path class="fil2" d="M204 724l30 -35 -3 -4c-26,-25 -60,-39 -96,-39 -72,0 -135,55 -135,129 0,75 59,134 134,134 39,0 76,-16 102,-45l2 -2 0 -101 -95 0 20 46 29 0 0 36 -5 3c-16,11 -34,16 -52,16 -47,0 -89,-35 -89,-83 0,-51 38,-86 88,-86 25,0 49,9 66,27l4 4zm304 -71l-46 0 0 152c0,41 -29,57 -67,57 -38,0 -67,-16 -67,-57l0 -152 -46 0 0 152c0,69 47,104 113,104 67,0 113,-35 113,-104l0 -152zm102 0l-46 0 0 250 179 0 0 -46 -133 0 0 -204zm177 250l94 0c33,0 57,-9 80,-33 23,-25 37,-59 37,-93 0,-67 -49,-124 -118,-124l-131 0 21 47 17 0 0 203zm45 -203l48 0c46,0 72,37 72,80 0,41 -28,77 -71,77l-49 0 0 -157z"/>
   <path class="fil3" d="M119 1075c-3,6 -7,10 -13,13 -6,3 -12,4 -20,4 -13,0 -23,-4 -31,-12 -8,-8 -12,-18 -12,-32 0,-14 4,-24 12,-32 8,-8 19,-12 32,-12 11,0 20,3 26,8 7,5 11,12 12,21l-9 0c-1,-7 -4,-12 -9,-16 -5,-3 -12,-5 -20,-5 -11,0 -20,3 -26,10 -6,6 -9,15 -9,26 0,11 3,20 9,26 6,7 15,10 25,10 9,0 17,-2 23,-7 6,-6 9,-12 9,-19l0 -4 -27 0 0 -7 35 0 0 43 -6 0 -1 -15zm155 -19l38 0 -19 -43 -19 43zm-24 34l38 -84 10 0 38 84 -8 0 -12 -26 -46 0 -12 26 -8 0zm212 0l0 -84 13 0 36 76 36 -76 12 0 0 84 -8 0 0 -77 -35 77 -10 0 -37 -77 1 77 -8 0zm232 0l0 -84 64 0 0 8 -56 0 0 29 52 0 0 8 -52 0 0 31 56 0 0 8 -64 0zm191 -28l8 0 0 1c0,6 3,11 8,15 5,4 11,6 19,6 8,0 14,-2 19,-5 5,-3 7,-7 7,-12 0,-4 -1,-7 -4,-9 -3,-2 -8,-4 -17,-6l-18 -3c-6,-1 -11,-3 -15,-7 -3,-3 -5,-8 -5,-14 0,-7 3,-13 9,-18 6,-4 14,-6 23,-6 11,0 19,2 24,7 6,4 9,11 9,19l-8 0c0,-6 -3,-11 -7,-14 -4,-3 -10,-4 -17,-4 -8,0 -13,1 -18,4 -4,3 -6,7 -6,12 0,4 1,7 4,9 3,2 9,4 17,5l16 3c8,1 13,4 17,7 3,3 5,8 5,14 0,9 -3,15 -9,19 -6,5 -14,7 -25,7 -11,0 -20,-2 -26,-7 -7,-5 -10,-12 -10,-21l0 -2z"/>
  </g>
 </g>
</svg>
