<?xml version="1.0" encoding="UTF-8"?>
<!DOCTYPE svg PUBLIC "-//W3C//DTD SVG 1.0//EN" "http://www.w3.org/TR/2001/REC-SVG-20010904/DTD/svg10.dtd">
<!-- Creator: CorelDRAW X8 -->
<svg xmlns="http://www.w3.org/2000/svg" xml:space="preserve" width="39.2717in" height="7.94063in" version="1.0" style="shape-rendering:geometricPrecision; text-rendering:geometricPrecision; image-rendering:optimizeQuality; fill-rule:evenodd; clip-rule:evenodd"
viewBox="0 0 4437 897"
 xmlns:xlink="http://www.w3.org/1999/xlink">
 <defs>
  <style type="text/css">
   <![CDATA[
    .fil1 {fill:#FF5112}
    .fil2 {fill:white}
    .fil0 {fill:white}
    .fil3 {fill:white;fill-rule:nonzero}
   ]]>
  </style>
 </defs>
 <g id="Layer_x0020_1">
  <metadata id="CorelCorpID_0Corel-Layer"/>
  <path class="fil0" d="M389 0l-389 0 0 672 389 225 0 -509 0 -109 -203 0 100 109 0 328c0,0 -178,-103 -178,-103 0,0 0,-504 0,-504l281 0 0 -109z"/>
  <path class="fil1" d="M451 0l389 0 0 672 -389 225 0 -509 0 -109 204 0 -100 109 0 328c0,0 177,-103 177,-103 0,0 0,-504 0,-504l-281 0 0 -109z"/>
  <path class="fil2" d="M1380 359l50 -59 -6 -7c-43,-42 -101,-66 -162,-66 -121,0 -227,93 -227,217 0,127 100,226 227,226 65,0 128,-27 172,-76l2 -3 0 -170 -160 0 34 78 48 0 0 60 -8 5c-26,18 -56,28 -88,28 -79,0 -149,-60 -149,-141 0,-85 65,-145 149,-145 41,0 82,16 110,45l8 8zm512 -120l-78 0 0 256c0,70 -48,97 -112,97 -65,0 -113,-27 -113,-97l0 -256 -78 0 0 256c0,117 79,175 191,175 111,0 190,-58 190,-175l0 -256zm172 0l-78 0 0 422 302 0 0 -78 -224 0 0 -344zm297 422l159 0c56,0 97,-15 136,-57 38,-41 62,-99 62,-156 0,-113 -84,-209 -200,-209l-220 0 35 79 28 0 0 343zm78 -343l80 0c77,0 120,62 120,135 0,69 -46,130 -119,130l-81 0 0 -265z"/>
  <path class="fil3" d="M3027 494c-5,9 -12,17 -21,22 -10,5 -21,7 -34,7 -22,0 -39,-7 -52,-20 -14,-14 -20,-32 -20,-54 0,-24 6,-42 20,-55 13,-13 31,-20 54,-20 18,0 33,4 44,13 12,9 18,21 20,36l-15 0c-2,-12 -8,-20 -16,-26 -8,-6 -20,-9 -34,-9 -18,0 -32,5 -43,16 -11,11 -16,26 -16,45 0,18 5,33 16,44 11,11 25,16 42,16 15,0 28,-4 38,-13 11,-8 16,-18 16,-31l0 -7 -45 0 0 -12 59 0 0 73 -11 0 -2 -25zm262 -32l65 0 -33 -73 -32 73zm-41 57l65 -141 16 0 65 141 -14 0 -20 -43 -78 0 -20 43 -14 0zm358 0l0 -141 22 0 60 128 61 -128 21 0 0 141 -14 0 0 -129 -60 129 -16 0 -62 -129 2 129 -14 0zm390 0l0 -141 109 0 0 13 -95 0 0 50 88 0 0 13 -88 0 0 52 95 0 0 13 -109 0zm323 -46l14 0 0 0c0,11 4,20 12,26 8,7 19,10 33,10 13,0 24,-2 32,-8 8,-5 12,-12 12,-21 0,-7 -2,-12 -7,-15 -4,-4 -14,-7 -28,-9l-31 -6c-11,-2 -19,-6 -25,-11 -5,-6 -8,-14 -8,-24 0,-12 5,-22 14,-30 10,-7 23,-11 40,-11 17,0 30,4 40,12 10,7 15,18 16,32l-15 0c0,-10 -4,-18 -11,-23 -7,-5 -17,-8 -30,-8 -12,0 -22,2 -29,7 -7,5 -11,12 -11,20 0,7 3,12 8,15 5,4 14,7 28,9l27 5c13,2 22,6 28,12 6,6 9,14 9,25 0,13 -5,24 -15,32 -10,7 -25,11 -43,11 -18,0 -33,-4 -44,-13 -11,-8 -16,-20 -16,-35l0 -2z"/>
 </g>
</svg>
